# xmcd
# 
# Track frame offsets:
#     150
#     16115
#     30930
#     44887
#     60132
#     73895
#     87752
#     102547
#     116525
#     133675
#     150290
#     164600
#     181585
#     201192
# 
# Disc length: 2897
# 
# Revision: 2
# Processed by: cddbd v1.5.2PL0 Copyright (c) Steve Scherf et al.
# Submitted via: fre:ac v1.0.17
# 
DISCID=af0b4f0e
DTITLE=ABBA - ABBA
DYEAR=1975
DGENRE=Folk
TTITLE0=Mamma Mia
TTITLE1=Hey, Hey, Helen
TTITLE2=Tropical Loveland
TTITLE3=Sos
TTITLE4=Man in the Middle
TTITLE5=Bang-A-Boomerang
TTITLE6=I Do, I Do, I Do, I Do, I Do
TTITLE7=Rock Me
TTITLE8=Intermezzo No.1
TTITLE9=I've Been Waiting for You
TTITLE10=So Long
TTITLE11=Crazy World
TTITLE12=Medley (Pick a Bale of Cotton - On Top of Old Smokey - Midnight Special (1978...
TTITLE13=Mamma Mia (Spanish Version)
EXTD=
EXTT0=
EXTT1=
EXTT2=
EXTT3=
EXTT4=
EXTT5=
EXTT6=
EXTT7=
EXTT8=
EXTT9=
EXTT10=
EXTT11=
EXTT12=
EXTT13=
PLAYORDER=
